<svg class="main-svg" xmlns="http://www.w3.org/2000/svg" xmlns:xlink="http://www.w3.org/1999/xlink" width="1200" height="500" style="" viewBox="0 0 1200 500"><rect x="0" y="0" width="1200" height="500" style="fill: rgb(255, 255, 255); fill-opacity: 1;"/><defs id="defs-d1f61d"><g class="clips"><clipPath id="clipd1f61dxyplot" class="plotclip"><rect width="1040" height="320"/></clipPath><clipPath class="axesclip" id="clipd1f61dx"><rect x="80" y="0" width="1040" height="500"/></clipPath><clipPath class="axesclip" id="clipd1f61dy"><rect x="0" y="100" width="1200" height="320"/></clipPath><clipPath class="axesclip" id="clipd1f61dxy"><rect x="80" y="100" width="1040" height="320"/></clipPath></g><g class="gradients"/><g class="patterns"/></defs><g class="bglayer"><rect class="bg" x="80" y="100" width="1040" height="320" style="fill: rgb(255, 255, 255); fill-opacity: 1; stroke-width: 0;"/></g><g class="layer-below"><g class="imagelayer"/><g class="shapelayer"/></g><g class="cartesianlayer"><g class="subplot xy"><g class="layer-subplot"><g class="shapelayer"/><g class="imagelayer"/></g><g class="minor-gridlayer"><g class="x"/><g class="y"/></g><g class="gridlayer"><g class="x"><path class="xgrid crisp" transform="translate(247.55,0)" d="M0,100v320" style="stroke: rgb(192, 192, 192); stroke-opacity: 1; stroke-dasharray: 9px, 9px; stroke-width: 1px;"/><path class="xgrid crisp" transform="translate(420.9,0)" d="M0,100v320" style="stroke: rgb(192, 192, 192); stroke-opacity: 1; stroke-dasharray: 9px, 9px; stroke-width: 1px;"/><path class="xgrid crisp" transform="translate(594.26,0)" d="M0,100v320" style="stroke: rgb(192, 192, 192); stroke-opacity: 1; stroke-dasharray: 9px, 9px; stroke-width: 1px;"/><path class="xgrid crisp" transform="translate(770.45,0)" d="M0,100v320" style="stroke: rgb(192, 192, 192); stroke-opacity: 1; stroke-dasharray: 9px, 9px; stroke-width: 1px;"/><path class="xgrid crisp" transform="translate(943.81,0)" d="M0,100v320" style="stroke: rgb(192, 192, 192); stroke-opacity: 1; stroke-dasharray: 9px, 9px; stroke-width: 1px;"/><path class="xgrid crisp" transform="translate(1117.16,0)" d="M0,100v320" style="stroke: rgb(192, 192, 192); stroke-opacity: 1; stroke-dasharray: 9px, 9px; stroke-width: 1px;"/></g><g class="y"><path class="ygrid crisp" transform="translate(0,401.17)" d="M80,0h1040" style="stroke: rgb(192, 192, 192); stroke-opacity: 1; stroke-dasharray: 9px, 9px; stroke-width: 1px;"/><path class="ygrid crisp" transform="translate(0,259.65)" d="M80,0h1040" style="stroke: rgb(192, 192, 192); stroke-opacity: 1; stroke-dasharray: 9px, 9px; stroke-width: 1px;"/><path class="ygrid crisp" transform="translate(0,188.88)" d="M80,0h1040" style="stroke: rgb(192, 192, 192); stroke-opacity: 1; stroke-dasharray: 9px, 9px; stroke-width: 1px;"/><path class="ygrid crisp" transform="translate(0,118.12)" d="M80,0h1040" style="stroke: rgb(192, 192, 192); stroke-opacity: 1; stroke-dasharray: 9px, 9px; stroke-width: 1px;"/></g></g><g class="zerolinelayer"><path class="yzl zl crisp" transform="translate(0,330.40999999999997)" d="M80,0h1040" style="stroke: rgb(0, 0, 0); stroke-opacity: 1; stroke-width: 2px;"/></g><path class="xlines-below"/><path class="ylines-below"/><g class="overlines-below"/><g class="xaxislayer-below"/><g class="yaxislayer-below"/><g class="overaxes-below"/><g class="plot" transform="translate(80,100)" clip-path="url(#clipd1f61dxyplot)"><g class="scatterlayer mlayer"><g class="trace scatter tracedba5c0" style="stroke-miterlimit: 2; opacity: 1;"><g class="fills"/><g class="errorbars"/><g class="lines"><path class="js-line" d="M0,248.1L0.12,253.05L0.36,238.19L0.47,222.62L1.54,190.78L1.78,194.32L1.89,195.73L3.08,204.23L3.2,204.93L3.67,207.76L3.91,206.35L4.03,204.23L4.26,204.23L4.38,202.81L4.62,202.81L4.74,204.23L4.85,205.64L5.09,203.52L5.45,204.93L5.57,204.93L6.39,209.89L6.51,209.18L7.22,202.81L7.46,204.93L7.58,205.64L7.82,205.64L7.93,207.06L8.88,209.89L9,209.18L9.59,205.64L9.71,207.76L11.49,215.55L11.6,214.84L12.43,209.89L12.55,206.35L12.91,209.89L13.26,207.06L13.38,207.06L13.62,204.93L13.97,206.35L14.09,207.76L15.04,216.26L15.16,214.84L15.27,212.72L15.75,208.47L15.87,209.89L15.99,211.3L16.93,221.21L17.05,219.79L17.17,221.21L18,213.43L18.12,211.3L18.47,202.1L18.95,207.06L19.06,207.76L19.18,206.35L19.42,212.01L19.54,212.01L20.01,212.72L20.13,211.3L20.37,213.43L20.49,221.21L20.6,222.62L20.84,216.26L20.96,209.89L21.43,199.98L21.55,208.47L21.67,223.33L22.85,254.47L22.97,249.51L23.45,261.54L23.56,260.13L23.68,241.02L24.27,187.24L24.51,208.47L24.63,222.62L25.22,252.34L25.58,250.22L25.7,243.85L26.17,253.76L26.29,248.81L26.41,241.02L27,194.32L27.35,200.69L27.47,202.81L27.71,202.81L27.83,204.23L28.3,203.52L28.77,209.89L28.89,206.35L29.01,203.52L29.25,203.52L29.37,202.1L30.31,186.54L30.55,187.24L30.67,188.66L31.73,172.38L31.85,175.21L32.56,187.95L32.68,182.29L32.8,183L33.39,221.92L33.63,210.59L33.75,206.35L33.98,214.13L34.46,205.64L34.58,203.52L34.69,202.81L34.93,204.23L35.05,197.86L35.4,187.95L35.76,195.03L35.88,195.73L37.18,219.79L37.3,226.87L37.42,228.99L37.77,223.33L37.89,219.79L38.25,214.13L38.6,216.96L38.72,218.38L39.67,234.65L39.9,230.41L40.02,226.87L41.44,214.13L41.56,219.79L42.04,225.45L42.27,219.79L42.39,220.5L42.51,221.92L42.75,219.79L42.86,220.5L42.98,218.38L43.22,219.79L43.34,217.67L43.58,217.67L43.69,216.96L44.05,216.96L44.17,219.09L44.64,236.78L45,232.53L45.11,231.82L45.59,228.99L45.71,227.58L46.3,226.16L46.42,207.06L46.89,175.21L47.25,192.2L47.36,197.86L47.72,195.73L48.19,213.43L48.55,209.18L48.67,208.47L49.85,185.83L49.97,186.54L50.09,190.07L50.21,189.37L50.32,192.2L50.44,192.9L50.8,195.03L50.92,191.49L51.03,188.66L51.51,197.86L51.75,192.2L51.86,187.24L52.69,157.52L53.05,161.77L53.17,164.6L54.11,181.58L54.35,178.04L54.47,175.92L56.25,155.4L56.36,156.82L56.48,161.06L56.84,151.86L56.96,150.45L57.07,149.74L57.19,187.95L57.31,175.92L57.67,191.49L58.02,176.63L58.14,173.8L58.38,173.09L58.73,177.34L58.85,176.63L58.97,190.78L59.56,205.64L60.03,204.93L60.15,204.23L60.63,206.35L60.74,199.27L61.22,185.12L61.46,193.61L61.57,197.86L62.4,221.92L62.64,220.5L62.76,215.55L63.94,193.61L64.06,195.73L64.18,198.57L64.53,219.79L65.01,212.01L65.13,210.59L65.48,215.55L65.6,213.43L65.72,212.01L65.95,216.96L66.07,221.92L66.19,226.16L66.31,218.38L66.43,207.06L66.67,193.61L67.14,209.18L67.26,212.72L68.2,231.12L68.32,229.7L68.44,228.29L69.03,249.51L69.15,230.41L69.27,209.89L69.63,191.49L70.1,202.1L70.22,204.93L70.34,204.23L70.45,209.18L70.57,196.44L71.16,201.4L71.28,202.1L72.7,184.41L72.82,194.32L73.77,209.89L73.89,212.01L74.36,218.38L74.72,214.13L74.84,211.3L76.14,181.58L76.26,181.58L76.37,180.87L76.61,183L76.73,185.83L77.56,192.2L77.68,193.61L77.8,194.32L78.03,191.49L78.15,190.78L78.74,197.86L78.86,199.98L79.22,202.1L79.34,199.98L79.45,197.15L80.76,159.65L81.11,162.48L81.23,163.89L81.7,179.46L81.82,186.54L83.01,231.82L83.12,228.29L83.83,215.55L84.07,217.67L84.19,221.21L85.97,266.5L86.08,265.79L86.2,258.71L86.91,216.26L87.15,232.53L87.27,235.36L87.98,226.87L88.45,228.29L88.57,227.58L89.16,221.21L89.28,219.09L89.52,214.84L89.76,217.67L89.87,220.5L90.47,225.45L90.7,222.62L90.82,219.79L91.29,224.75L91.41,224.04L91.53,220.5L92.01,211.3L92.12,207.06L93.19,161.06L93.66,164.6L93.78,161.06L94.25,167.43L94.85,166.72L94.97,166.72L96.03,177.34L96.15,175.92L96.39,173.09L96.74,175.92L96.86,178.75L97.33,192.2L97.57,188.66L97.69,182.29L98.16,171.68L98.28,173.8L98.4,178.75L98.87,190.78L99.23,188.66L99.35,188.66L100.29,193.61L100.41,192.9L100.53,182.29L101,166.01L101.36,173.8L101.48,178.75L102.66,187.24L102.78,191.49L103.85,214.84L103.96,215.55L106.81,267.2L106.92,266.5L107.04,265.79L107.4,263.67L107.64,265.08L107.75,265.79L107.99,267.2L108.23,265.08L108.35,265.08L108.46,265.08L108.82,270.74L109.06,268.62L109.17,267.91L110.36,274.28L110.48,272.86L111.31,284.19L111.42,278.53L111.54,277.11L112.25,239.61L112.61,243.85L112.73,248.81L113.91,270.03L114.03,271.45L115.1,236.78L115.45,243.14L115.57,247.39L115.81,245.98L116.4,269.33L116.52,267.2L116.63,264.37L116.75,260.84L116.87,267.2L116.99,266.5L117.11,282.06L117.23,296.92L117.46,256.59L117.58,241.73L118.17,233.24L118.29,236.78L118.41,255.17L119.36,302.58L119.48,299.05L119.59,286.31L119.83,300.46L120.07,280.65L120.19,278.53L121.13,252.34L121.25,257.3L122.67,295.51L122.79,301.17L122.91,304L123.03,294.8L123.15,279.94L123.86,237.48L124.09,247.39L124.21,259.42L124.33,257.3L124.45,260.84L124.57,267.2L124.69,265.79L124.8,255.17L125.75,266.5L125.87,258L126.7,209.18L127.05,211.3L127.17,212.72L127.53,219.09L127.65,218.38L127.77,221.92L128.24,219.09L128.36,221.21L129.07,214.84L129.19,208.47L130.13,196.44L130.37,200.69L130.49,202.1L131.08,194.32L131.32,199.27L131.44,197.15L131.79,185.83L131.91,166.72L132.26,153.28L132.62,158.94L132.74,166.01L133.57,178.04L133.69,175.92L133.8,174.51L134.04,175.92L134.4,174.51L134.51,171.68L135.22,150.45L135.58,153.28L135.7,153.99L137,184.41L137.24,178.75L137.36,172.38L137.83,153.28L138.19,164.6L138.3,166.72L138.42,166.01L138.54,176.63L139.84,205.64L140.08,201.4L140.2,192.2L140.91,157.52L141.15,163.18L141.26,165.31L141.5,178.75L141.97,173.09L142.09,168.85L143.04,155.4L143.16,141.96L143.63,117.9L143.99,130.63L144.11,135.59L145.53,175.92L145.64,174.51L146.59,114.36L146.71,120.02L146.83,136.29L147.3,173.09L147.66,166.01L147.78,167.43L147.89,164.6L148.01,170.97L148.37,170.97L148.49,170.97L149.2,117.19L149.67,128.51L149.79,136.29L149.91,130.63L150.03,145.49L150.38,134.17L150.5,143.37L151.09,169.55L151.33,153.28L151.45,144.08L152.28,106.57L152.51,117.9L152.63,131.34L152.87,133.46L152.99,139.83L153.22,135.59L153.46,141.96L153.58,139.13L153.7,150.45L153.82,149.03L153.93,153.99L154.05,157.52L155,100.21L155.35,115.77L155.47,138.42L155.71,154.69L155.95,133.46L156.3,149.03L156.42,147.62L156.54,148.32L156.66,158.94L157.01,168.14L157.49,125.68L157.6,116.48L157.72,115.07L157.84,121.43L157.96,135.59L159.03,171.68L159.14,173.8L159.85,197.86L159.97,186.54L160.09,179.46L160.68,157.52L160.92,166.01L161.04,174.51L161.87,231.82L162.1,209.18L162.22,208.47L162.34,211.3L162.81,207.06L162.93,205.64L163.41,174.51L163.52,163.89L163.88,178.04L164,185.12L165.18,241.02L165.42,235.36L165.54,233.95L165.89,199.98L166.01,178.04L166.49,156.82L166.72,169.55L166.84,183L167.43,211.3L167.79,202.81L167.91,202.81L168.02,202.1L168.14,202.81L168.26,207.06L168.62,211.3L168.85,197.15L168.97,190.07L169.45,155.4L169.68,176.63L169.8,184.41L170.51,208.47L170.63,214.13L171.1,228.29L171.22,226.87L171.34,207.06L172.17,129.93L172.29,132.76L172.41,143.37L173.47,226.16L173.59,226.87L173.83,227.58L173.95,224.75L174.06,220.5L175.01,162.48L175.13,167.43L175.25,175.21L176.19,204.93L176.31,204.93L176.67,207.76L176.91,205.64L177.02,204.23L177.97,190.78L178.09,194.32L178.21,197.86L179.27,222.62L179.39,228.99L179.63,237.48L179.75,232.53L179.87,218.38L180.58,187.95L180.81,190.78L180.93,196.44L182.47,267.2L182.59,255.88L183.18,184.41L183.54,188.66L183.65,187.95L184.72,261.54L185.19,250.93L185.31,244.56L186.38,192.2L186.5,195.73L186.62,197.15L187.21,231.12L187.33,224.04L187.44,209.89L188.98,168.14L189.34,173.8L189.46,181.58L190.4,202.81L190.52,201.4L191.94,181.58L192.06,183L192.18,184.41L192.77,192.9L192.89,211.3L193.13,234.65L193.6,215.55L193.72,205.64L193.96,204.93L194.07,199.27L194.79,161.77L195.02,171.68L195.14,180.17L195.73,187.24L195.97,186.54L196.09,180.87L197.04,146.91L197.51,147.62L197.63,155.4L199.52,193.61L199.64,192.2L199.76,183.71L200.23,173.8L200.59,175.21L200.71,172.38L202.01,186.54L202.13,183L203.07,170.26L203.19,171.68L203.31,170.26L203.43,178.04L203.55,205.64L204.14,185.83L204.26,186.54L204.61,185.83L205.09,196.44L205.32,190.78L205.44,186.54L206.27,170.97L206.39,175.92L206.51,175.21L207.69,192.2L207.81,190.78L207.93,190.07L208.05,191.49L208.28,186.54L208.4,185.83L209.11,172.38L209.23,174.51L209.35,182.29L210.77,190.78L210.89,190.78L211.48,178.75L211.6,180.87L211.72,186.54L212.9,199.98L213.14,199.27L213.26,199.27L213.61,195.03L213.85,195.73L213.97,198.57L214.68,178.04L215.03,183.71L215.15,193.61L215.63,206.35L215.74,221.92L216.1,232.53L216.45,222.62L216.57,218.38L217.52,170.97L217.64,181.58L217.76,182.29L217.99,187.95L218.11,190.78L218.47,200.69L218.59,206.35L219.41,226.87L219.53,216.96L219.65,202.81L220.6,168.85L220.72,174.51L220.84,185.83L222.14,244.56L222.26,238.9L222.38,225.45L223.09,168.85L223.44,183.71L223.56,188.66L224.39,190.78L224.51,190.78L226.16,178.75L226.28,179.46L227.35,219.79L227.47,216.96L227.59,202.1L228.89,174.51L229.01,176.63L229.24,175.21L229.36,180.17L230.07,215.55L230.19,209.89L230.31,193.61L230.55,196.44L230.66,194.32L230.78,189.37L230.9,190.78L231.02,183.71L231.14,180.17L232.08,161.77L232.2,165.31L233.39,231.12L233.51,228.99L233.62,223.33L234.57,133.46L234.81,135.59L234.93,148.32L236.11,210.59L236.23,199.98L237.53,139.13L237.77,146.2L237.89,156.11L238.83,186.54L238.95,188.66L240.02,135.59L240.49,141.25L240.61,142.66L241.68,195.03L241.91,189.37L242.03,186.54L242.15,189.37L242.39,178.75L242.5,184.41L242.62,178.04L242.86,175.21L242.98,170.97L243.33,166.72L243.69,185.83L244.04,182.29L244.16,180.87L244.4,180.17L244.52,182.29L244.64,183L244.87,185.83L244.99,179.46L245.11,175.21L246.06,143.37L246.18,144.79L246.29,146.91L247.83,168.85L247.95,163.89L249.02,98.08L249.25,113.65L249.37,125.68L250.32,212.01L250.44,213.43L250.56,216.26L250.68,211.3L250.79,175.21L251.74,83.22L251.98,86.05L252.1,110.82L253.04,201.4L253.16,203.52L253.4,207.06L253.52,197.15L253.64,156.82L254.46,62L254.82,83.22L254.94,97.38L255.77,151.15L255.89,137L256.12,172.38L256.6,152.57L256.71,149.03L257.07,141.96L257.42,151.15L257.54,151.15L259.08,226.87L259.2,222.62L259.32,199.27L260.27,177.34L260.38,178.04L260.5,178.75L260.62,187.95L260.86,183.71L260.98,190.78L261.21,188.66L261.33,192.2L261.81,185.83L261.92,187.95L262.04,194.32L262.99,159.65L263.11,166.72L263.23,170.97L264.17,187.24L264.29,187.95L265.12,192.2L265.24,187.95L265.95,166.01L266.19,175.21L266.31,183.71L266.66,195.73L267.13,191.49L267.25,186.54L267.61,170.26L267.84,204.93L267.96,206.35L268.32,199.98L268.79,200.69L268.91,216.26L269.15,205.64L269.27,218.38L269.74,206.35L269.86,209.89L269.98,207.06L270.09,212.72L270.21,221.92L270.57,224.75L271.16,195.03L271.63,199.27L271.75,201.4L272.58,226.16L272.7,223.33L273.05,221.92L273.29,226.87L273.41,211.3L274.12,185.12L274.36,187.24L274.48,205.64L274.59,192.2L274.83,214.84L275.07,213.43L275.19,215.55L275.42,216.96L275.54,212.72L276.02,213.43L276.13,221.92L277.32,168.14L277.44,171.68L277.55,169.55L277.67,173.8L277.79,183L278.38,198.57L278.74,194.32L278.86,194.32L279.09,193.61L279.21,186.54L280.04,146.2L280.4,152.57L280.51,167.43L281.82,195.03L281.94,195.03L282.41,176.63L282.76,183L282.88,187.24L283.95,214.84L284.3,209.18L284.42,209.18L285.01,201.4L285.13,195.03L285.96,180.17L286.08,186.54L286.2,190.78L287.15,233.24L287.26,223.33L287.38,220.5L287.5,232.53L287.86,205.64L287.97,212.01L288.09,204.23L288.57,174.51L288.92,187.24L289.04,190.78L290.34,245.98L290.46,224.75L291.29,167.43L291.41,168.85L291.53,170.26L291.76,168.14L291.88,175.92L292,192.9L292.71,233.95L292.83,228.99L292.95,228.29L293.3,221.21L293.42,209.18L294.13,165.31L294.49,171.68L294.61,178.04L296.03,224.75L296.14,216.96L297.09,163.18L297.21,169.55L297.57,173.09L297.68,180.17L298.75,242.44L298.99,229.7L299.11,189.37L299.82,148.32L300.17,150.45L300.29,156.11L301.71,229.7L301.83,207.06L301.95,185.83L302.54,147.62L302.89,150.45L303.01,151.15L304.43,229.7L304.55,221.21L304.67,202.81L305.62,122.85L306.09,138.42L306.21,152.57L307.04,197.15L307.16,194.32L307.28,193.61L307.75,173.8L307.87,158.94L308.34,132.76L308.81,138.42L308.93,141.25L310,200.69L310.12,208.47L310.24,209.89L310.35,187.95L311.06,110.82L311.42,113.65L311.54,117.19L311.78,124.97L311.89,140.54L312.72,204.23L312.96,189.37L313.08,188.66L314.02,142.66L314.14,144.08L314.26,151.15L315.56,208.47L315.68,206.35L315.8,195.03L315.92,194.32L316.04,186.54L316.99,152.57L317.22,156.11L317.34,162.48L318.64,238.9L318.76,236.78L318.88,207.76L319.95,139.13L320.06,140.54L321.48,225.45L321.6,224.75L321.72,201.4L322.79,138.42L322.91,140.54L323.97,196.44L324.09,192.2L324.21,190.78L324.44,191.49L325.51,161.06L325.63,155.4L327.17,214.84L327.29,214.13L327.41,200.69L328.23,144.79L328.47,148.32L328.59,150.45L329.3,192.9L329.42,198.57L330.01,221.21L330.13,219.09L330.25,199.98L331.31,122.85L331.43,126.39L331.55,129.93L332.85,199.98L332.97,199.27L333.09,190.07L333.92,108.7L334.39,126.39L334.51,137.71L335.93,177.34L336.05,174.51L336.17,173.8L336.29,175.92L336.4,179.46L336.52,184.41L336.88,177.34L337,179.46L337.11,168.85L338.18,180.17L338.3,179.46L338.42,180.17L339.25,176.63L339.36,170.26L339.48,169.55L339.6,162.48L339.72,161.06L339.96,163.89L340.08,168.85L340.43,178.04L340.55,189.37L340.9,183.71L341.02,186.54L341.14,197.15L341.38,214.84L341.5,203.52L341.61,186.54L342.68,146.91L342.8,157.52L343.86,195.73L343.98,206.35L344.1,212.72L344.34,198.57L344.46,181.58L345.64,157.52L345.76,168.85L346.35,193.61L346.47,207.76L346.82,220.5L346.94,212.72L347.06,195.03L348.48,134.17L348.6,137L348.72,141.96L349.07,145.49L349.31,142.66L349.43,153.28L349.78,170.97L350.14,164.6L350.26,159.65L350.5,162.48L350.85,155.4L351.09,156.82L351.21,167.43L351.44,158.94L351.68,174.51L351.8,173.09L351.92,185.12L352.03,183L352.27,185.12L352.39,192.2L352.75,192.9L353.1,181.58L353.22,182.29L353.34,173.8L353.93,161.06L354.17,162.48L354.28,168.85L354.64,185.83L354.76,185.12L354.88,192.9L355.59,211.3L355.71,203.52L355.82,197.86L356.77,161.77L356.89,159.65L358.07,223.33L358.19,220.5L358.31,205.64L358.55,213.43L358.67,199.98L358.78,191.49L359.49,149.03L359.73,154.69L359.85,156.11L360.2,171.68L360.32,188.66L360.8,221.21L361.15,211.3L361.27,206.35L363.05,115.07L363.17,116.48L363.64,129.93L363.76,135.59L364.11,148.32L364.23,144.08L364.35,134.88L365.42,56.33L365.65,61.29L365.77,69.07L366.84,123.56L366.95,118.6L367.07,99.5L367.55,129.93L367.66,128.51L367.78,132.76L367.9,117.9L368.02,103.04L368.26,94.55L368.73,116.48L368.85,135.59L368.97,130.63L369.32,139.13L369.44,145.49L369.68,151.15L369.8,158.94L370.03,142.66L370.15,132.05L370.74,112.24L371.1,115.77L371.22,120.02L371.34,117.19L371.45,136.29L371.69,140.54L371.81,144.79L371.93,143.37L372.05,151.86L372.64,180.17L372.76,168.85L372.87,149.03L373.82,107.28L374.06,119.31L374.18,153.28L375.48,202.81L375.6,187.24L375.72,163.18L376.55,96.67L376.66,105.16L376.78,108.7L378.2,167.43L378.32,168.85L378.44,169.55L378.56,168.14L378.68,164.6L379.74,119.31L379.86,131.34L379.98,141.96L380.69,175.21L381.16,170.26L381.28,168.14L382.35,136.29L382.47,149.74L382.58,144.08L383.06,153.28L383.18,158.23L383.3,167.43L383.65,156.82L383.89,157.52L384.01,158.23L384.36,151.15L384.48,144.08L384.72,149.74L385.31,127.1L385.43,129.93L385.54,143.37L385.66,137.71L385.78,142.66L385.9,163.89L386.14,172.38L386.26,151.15L386.37,161.77L386.97,158.94L387.08,155.4L387.32,151.15L387.44,140.54L387.68,150.45L388.15,130.63L388.27,137L388.39,141.25L389.33,180.87L389.57,170.26L389.69,163.18L390.64,117.19L391.11,126.39L391.23,125.68L391.94,188.66L392.29,176.63L392.41,166.01L393.12,143.37L393.24,163.89L393.95,133.46L394.07,141.25L394.19,144.08L395.02,194.32L395.37,177.34L395.49,170.97L395.85,158.23L395.96,141.25L396.44,120.02L396.79,126.39L396.91,127.8L398.21,156.82L398.33,148.32L398.45,143.37L399.64,115.07L399.75,120.73L401.06,159.65L401.17,161.77L401.29,162.48L401.41,159.65L401.53,158.23L402.12,144.79L402.48,147.62L402.6,151.15L403.78,174.51L403.9,166.01L404.37,154.69L404.49,147.62L405.2,126.39L405.56,131.34L405.67,134.17L406.03,153.28L406.5,139.83L406.62,137.71L406.86,154.69L407.45,152.57L407.57,146.2L408.04,127.8L408.16,148.32L408.28,144.08L408.4,163.18L408.52,162.48L409.58,183L409.7,176.63L409.82,166.72L410.41,139.83L410.77,150.45L410.88,148.32L411,144.79L411.36,156.11L411.48,163.18L411.71,162.48L412.19,170.26L412.31,169.55L412.42,166.01L412.78,156.82L412.9,148.32L413.02,159.65L413.37,136.29L413.49,137L413.61,143.37L415.27,164.6L415.38,163.89L415.86,158.23L415.98,154.69L416.09,157.52L416.21,151.86L416.33,144.08L416.81,139.83L416.92,141.25L417.04,146.91L418.11,206.35L418.23,180.17L418.34,156.82L419.17,99.5L419.65,100.21L419.77,112.94L420.95,190.78L421.07,166.01L422.02,110.11L422.25,111.53L422.37,113.65L422.84,141.25L422.96,149.74L423.55,175.92L423.91,167.43L424.03,157.52L424.98,83.22L425.33,88.18L425.45,91.71L426.63,163.89L426.75,153.99L426.87,137L427.94,69.07L428.05,69.78L428.41,86.05L428.53,117.19L429.48,168.85L429.59,134.88L430.66,54.92L430.78,55.63L430.9,53.5L431.25,74.73L431.37,105.16L432.2,145.49L432.32,137L432.44,125.68L433.62,39.35L433.74,39.35L433.86,40.06L433.97,47.14L434.21,93.84L434.33,109.41L434.45,110.11L434.57,89.59L434.69,83.22L434.92,93.13L435.04,105.16L435.16,120.02L435.51,80.39L435.63,74.02L436.11,56.33L436.46,64.12L436.58,64.83L437.29,105.87L437.41,115.07L437.88,137.71L438,135.59L438.12,122.14L439.07,49.26L439.18,52.09L439.3,54.92L440.84,114.36L440.96,114.36L441.55,106.57L441.67,108.7L441.79,114.36L442.26,120.73L442.38,123.56L443.33,134.88L443.45,136.29L443.92,132.76L444.04,126.39L444.87,83.93L445.11,87.47L445.22,91.01L445.7,125.68L445.82,132.05L446.41,173.09L446.64,150.45L446.76,125.68L447.83,74.02L447.95,75.44L448.54,112.24L448.66,120.73L449.25,157.52L449.37,155.4L449.49,131.34L450.67,53.5L450.79,57.04L450.91,59.16L452.21,142.66L452.33,122.85L452.45,98.79L453.39,53.5L453.51,55.63L453.63,62L453.75,62.7L453.87,68.36L455.05,157.52L455.17,129.22L456.35,42.18L456.47,53.5L456.83,81.1L456.95,91.71L457.78,144.79L458.01,129.93L458.13,120.73L459.31,63.41L459.43,72.61L459.55,81.1L460.85,114.36L460.97,105.87L461.8,89.59L461.92,90.3L462.04,100.91L462.63,129.93L462.75,138.42L463.46,176.63L463.58,175.92L463.7,146.2L465,66.95L465.12,65.53L465.47,90.3L465.59,122.85L466.3,156.11L466.42,153.28L466.54,122.14L467.48,39.35L467.72,42.89L467.84,44.3L469.38,121.43L469.5,119.31L470.56,69.78L470.8,78.27L470.92,81.1L471.98,155.4L472.1,152.57L472.22,117.19L473.29,28.03L473.52,28.74L473.64,29.44L474,67.66L474.12,87.47L474.71,111.53L474.94,105.87L475.06,78.27L475.89,16L476.13,26.61L476.25,32.98L476.37,32.28L476.48,34.4L476.6,51.38L477.79,95.25L477.91,97.38L478.38,78.98L478.5,57.04L478.97,25.91L479.33,38.64L479.44,65.53L480.04,94.55L480.39,91.01L480.51,93.13L481.46,105.87L481.58,105.87L482.17,98.08L482.29,100.21L482.4,104.45L483.35,120.02L483.47,119.31L484.06,92.42L484.18,83.22L484.42,85.35L484.89,74.02L485.01,85.35L485.13,83.93L485.25,89.59L485.36,97.38L486.55,137L486.9,133.46L487.02,131.34L487.73,119.31L487.85,126.39L487.97,128.51L488.33,138.42L488.44,144.08L488.56,141.96L488.8,149.74L488.92,148.32L489.04,146.91L489.51,134.17L489.63,125.68L489.98,108.7L490.46,110.82L490.57,111.53L492,151.86L492.11,145.49L492.23,139.83L493.3,110.11L493.42,112.24L493.54,115.77L494.84,140.54L495.07,136.29L495.19,128.51L496.26,95.96L496.5,96.67L496.61,112.24L497.44,179.46L497.56,166.72L497.68,153.99L498.98,100.91L499.1,105.16L500.05,127.8L500.17,124.27L500.64,122.85L500.76,115.77L501.71,56.33L502.06,64.83L502.18,69.07L503.36,110.11L503.48,100.21L503.84,83.22L503.96,71.19L504.67,45.72L504.78,49.26L504.9,54.92L505.73,105.87L505.85,105.87L506.21,122.14L506.32,108.7L506.44,95.96L506.92,62.7L507.39,73.32L507.51,74.02L507.74,69.78L507.86,74.73L507.98,79.69L508.81,106.57L509.17,105.87L509.28,103.04L509.88,87.47L510.11,99.5L510.23,100.21L511.89,135.59L512.01,136.29L512.36,134.88L512.48,132.05L512.95,117.9L513.19,122.85L513.31,129.22L514.14,134.88L514.26,135.59L514.85,137.71L514.97,134.17L515.68,112.24L516.15,114.36L516.27,115.77L517.22,129.22L517.57,127.8L517.69,127.1L517.81,129.22L518.05,122.14L518.16,119.31L518.52,103.04L518.64,87.47L518.88,76.86L519.23,86.05L519.35,91.01L520.3,153.28L520.41,141.96L520.53,134.17L521.6,66.24L521.72,66.24L521.95,75.44L522.07,100.21L522.78,112.24L523.02,110.11L523.14,107.99L523.26,108.7L523.37,107.28L523.49,104.45L524.09,71.19L524.44,73.32L524.56,103.04L524.8,100.91L525.51,135.59L525.62,127.1L525.74,120.02L525.86,119.31L525.98,122.14L526.1,127.1L526.33,127.1L526.45,119.31L527.28,98.08L527.4,110.82L527.52,105.87L527.99,112.24L528.11,113.65L529.3,94.55L529.41,86.05L531.55,133.46L531.9,129.93L532.02,117.19L533.2,76.86L533.32,84.64L533.44,85.35L533.56,100.91L534.27,148.32L534.62,142.66L534.74,131.34L535.45,70.49L535.81,72.61L535.93,75.44L536.76,110.11L536.87,128.51L537.47,153.99L537.58,134.17L537.7,110.82L538.65,62L538.77,74.73L538.89,83.22L540.31,137.71L540.43,129.22L541.37,69.78L541.49,74.73L541.61,76.86L542.2,98.79L542.32,103.04L543.27,115.77L543.39,107.99L544.57,68.36L544.69,71.19L544.81,80.39L545.87,139.13L545.99,132.05L546.11,121.43L546.94,58.46L547.18,61.29L547.29,58.46L548.6,116.48L548.71,105.16L548.83,100.91L549.9,88.18L550.02,94.55L550.25,88.88L550.61,95.25L550.73,101.62L551.32,107.99L551.67,106.57L551.79,105.87L552.03,105.87L552.15,102.33L552.5,99.5L552.62,92.42L552.86,81.81L553.45,84.64L553.57,93.13L554.64,105.16L554.75,106.57L555.58,102.33L555.7,105.87L556.06,101.62L556.41,103.74L556.53,105.16L557.36,120.02L557.6,117.9L557.71,115.07L557.95,110.11L558.07,103.04L558.54,79.69L558.9,85.35L559.02,92.42L560.08,133.46L560.2,127.8L560.32,121.43L561.62,57.75L561.74,62L562.45,110.11L562.57,118.6L563.04,139.13L563.16,122.14L563.28,100.91L564.23,45.01L564.34,47.84L564.46,57.04L565.06,101.62L565.17,111.53L565.88,146.2L566,138.42L566.12,110.82L566.83,71.19L567.31,79.69L567.42,84.64L568.73,163.89L568.84,150.45L568.96,121.43L570.03,65.53L570.15,67.66L570.27,69.07L571.57,154.69L571.69,144.79L571.8,120.73L572.87,52.09L572.99,52.09L574.41,131.34L574.53,120.02L574.65,110.82L575.59,71.9L575.71,73.32L575.83,75.44L577.13,151.86L577.37,129.93L577.49,120.73L578.67,81.1L578.79,82.52L578.91,86.76L580.09,136.29L580.21,129.93L580.33,120.02L581.28,74.02L581.4,79.69L581.51,87.47L581.63,83.93L581.87,90.3L581.99,100.91L582.46,121.43L582.82,110.11L582.94,112.94L583.29,91.71L583.41,78.27L583.88,49.26L584.12,67.66L584.24,91.71L584.59,84.64L584.71,91.71L584.83,94.55L585.66,127.1L585.78,123.56L585.9,112.94L586.61,74.02L586.96,86.05L587.08,94.55L587.2,90.3L587.55,99.5L587.67,109.41L587.91,104.45L588.26,110.11L588.38,114.36L588.5,117.9L588.86,112.24L588.97,105.87L589.8,74.73L589.92,80.39L590.04,104.45L590.16,101.62L590.28,102.33L590.4,115.77L590.51,114.36L590.75,118.6L590.87,120.02L591.11,124.27L591.46,117.19L591.58,115.07L592.41,86.76L592.64,88.88L592.76,107.99L593,95.96L593.36,105.16L593.47,111.53L594.3,134.88L594.42,129.93L594.54,120.73L595.49,82.52L595.84,87.47L595.96,93.13L596.91,149.74L597.26,139.83L597.38,130.63L598.21,80.39L598.33,109.41L598.45,91.01L599.04,109.41L599.16,112.24L599.75,120.02L599.87,123.56L600.1,124.27L600.46,115.77L600.58,117.9L600.7,105.16L601.17,112.24L601.53,90.3L601.64,95.96L601.76,103.04L602.24,142.66L602.59,126.39L602.71,124.27L602.95,124.97L603.07,122.14L603.18,117.19L604.13,99.5L604.25,100.91L605.67,152.57L605.79,147.62L605.91,122.85L607.09,94.55L607.21,102.33L607.45,110.82L607.56,136.29L607.8,157.52L608.39,153.99L608.51,149.03L609.81,102.33L609.93,105.16L610.05,106.57L610.17,107.28L610.29,113.65L611,165.31L611.24,158.23L611.35,158.94L611.59,141.25L611.71,124.27L612.54,81.81L612.66,85.35L612.77,85.35L613.72,134.88L613.84,143.37L614.08,149.74L614.31,137L614.43,128.51L615.38,67.66L615.5,78.98L615.73,72.61L615.97,91.71L616.09,109.41L616.45,98.79L617.04,103.04L617.16,105.87L617.39,104.45L617.51,95.96L617.98,99.5L618.46,77.56L618.58,80.39L618.7,88.18L619.76,124.27L619.88,122.85L620,122.85L620.35,108.7L620.47,98.79L620.95,78.27L621.18,82.52L621.3,110.82L621.77,126.39L622.25,120.73L622.37,120.02L622.48,117.19L622.84,122.85L622.96,124.97L624.02,92.42L624.14,117.19L624.38,117.9L624.5,120.73L625.21,124.97L625.33,130.63L625.44,132.05L625.8,127.8L625.92,116.48L626.63,86.76L626.87,93.84L626.98,117.9L627.1,98.79L627.69,118.6L627.81,121.43L627.93,120.73L628.05,122.85L628.17,124.97L628.4,124.27L628.52,127.1L629.71,76.86L629.94,81.1L630.06,86.76L631.13,155.4L631.25,154.69L632.55,67.66L632.79,69.78L632.9,74.73L633.73,137.71L634.09,135.59L634.21,134.88L635.27,56.33L635.51,59.16L635.63,64.12L636.58,132.05L636.93,129.22L637.05,121.43L637.76,81.81L638.11,84.64L638.23,83.93L638.47,87.47L638.59,91.71L639.18,133.46L639.54,117.9L639.65,121.43L639.89,127.8L640.01,122.85L640.13,117.9L640.84,70.49L641.31,75.44L641.43,84.64L642.02,135.59L642.5,134.17L642.61,135.59L643.09,91.01L643.21,78.98L643.92,56.33L644.04,64.12L644.15,72.61L644.86,112.24L645.34,108.7L645.46,107.99L645.93,122.14L646.05,114.36L646.17,107.28L646.4,125.68L646.88,111.53L647,114.36L647.94,142.66L648.06,141.25L648.18,138.42L648.3,139.83L648.42,138.42L648.53,128.51L648.77,115.77L649.25,127.8L649.36,125.68L649.84,120.02L650.19,121.43L650.31,124.27L650.9,125.68L651.14,122.14L651.26,122.85L651.38,124.27L651.49,117.19L651.61,110.11L652.21,91.71L652.44,104.45L652.56,103.74L653.51,122.85L653.86,117.19L653.98,114.36L654.34,109.41L654.46,105.16L654.81,103.04L654.93,105.16L655.05,111.53L655.52,109.41L655.99,118.6L656.11,120.73L656.35,137.71L656.82,123.56L656.94,120.73L658.24,77.56L658.36,85.35L658.48,86.05L658.6,101.62L659.31,146.2L659.55,141.96L659.67,141.25L659.9,129.93L660.02,115.77L661.09,66.24L661.2,69.78L662.51,110.11L662.63,110.82L663.22,88.88L663.34,95.25L663.45,114.36L663.93,91.71L664.16,106.57L664.28,108.7L664.64,107.28L664.99,107.99L665.11,111.53L665.47,117.19L665.7,111.53L665.82,105.87L666.65,75.44L666.77,77.56L666.89,81.81L668.19,141.25L668.31,136.29L668.43,127.8L669.37,80.39L669.61,81.1L669.73,86.76L670.8,153.28L671.27,144.08L671.39,135.59L672.1,81.81L672.34,83.22L672.45,100.91L673.4,119.31L673.52,119.31L673.76,123.56L673.99,122.14L674.11,120.73L675.3,95.96L675.41,96.67L675.53,104.45L676.12,141.96L676.6,132.76L676.72,132.76L676.83,136.29L676.95,131.34L677.07,117.19L677.31,124.97L677.78,96.67L678.02,101.62L678.14,100.91L678.97,132.76L679.08,129.93L679.2,123.56L680.15,103.04L680.27,94.55L680.62,91.71L681.69,124.27L682.04,120.02L682.16,120.02L682.4,124.27L682.64,120.02L682.76,118.6L683.82,109.41L683.94,111.53L684.06,113.65L684.53,112.94L684.65,115.77L684.89,115.07L685.01,115.77L685.12,118.6L685.24,121.43L685.48,112.24L685.6,108.7L686.43,82.52L686.54,87.47L686.66,95.25L687.97,145.49L688.2,134.88L688.32,130.63L689.15,93.13L689.39,95.96L689.5,107.99L690.69,121.43L690.81,121.43L691.04,127.8L691.4,115.07L691.52,112.24L691.99,100.21L692.35,103.74L692.46,103.74L693.77,129.22L693.89,128.51L694,124.97L695.07,85.35L695.19,90.3L695.31,98.79L696.37,148.32L696.49,146.2L696.61,146.91L696.73,149.03L696.85,144.08L696.96,132.05L697.79,73.32L698.03,82.52L698.15,91.01L699.33,146.91L699.45,141.96L699.57,140.54L699.92,132.76L700.04,123.56L700.75,81.81L700.99,88.18L701.11,100.21L702.17,157.52L702.29,158.94L702.41,160.35L702.53,153.99L702.65,138.42L703.6,65.53L703.71,69.78L703.83,76.86L705.13,170.26L705.25,173.09L706.32,61.29L706.56,62.7L706.67,71.19L707.86,143.37L707.98,146.91L708.1,150.45L708.21,136.29L708.33,116.48L709.28,49.97L709.4,52.09L709.52,61.29L710.7,139.83L710.82,148.32L710.94,149.03L711.06,134.88L712.12,42.89L712.24,47.14L713.78,135.59L713.9,116.48L714.73,44.3L714.96,53.5L715.08,58.46L715.32,86.05L715.44,99.5L715.91,102.33L716.03,101.62L716.15,107.28L717.45,67.66L717.57,74.73L717.69,83.93L717.92,75.44L718.04,84.64L718.16,94.55L719.23,115.07L719.34,112.24L719.7,109.41L719.82,103.74L720.29,84.64L720.77,89.59L720.88,91.71L722.19,131.34L722.54,123.56L722.66,122.14L723.37,83.93L723.61,92.42L723.73,103.74L725.03,166.01L725.15,158.23L725.62,112.94L725.74,105.16L726.45,98.08L726.57,105.87L727.51,142.66L727.63,140.54L727.75,137.71L727.99,145.49L728.22,134.88L728.34,122.14L728.82,74.73L729.29,86.05L729.41,87.47L730.59,129.22L730.83,117.9L730.95,110.82L731.66,93.13L731.9,94.55L732.01,99.5L733.2,129.22L733.44,125.68L733.55,122.85L733.91,118.6L734.03,107.99L734.74,87.47L734.97,93.13L735.09,98.79L735.68,146.91L736.04,134.88L736.16,135.59L736.75,122.14L736.87,110.11L737.22,83.93L737.82,89.59L737.93,93.84L739,162.48L739.12,165.31L739.36,168.14L739.47,163.89L739.59,138.42L740.3,76.86L740.66,88.88L740.78,96.67L741.72,144.08L741.84,142.66L741.96,141.96L742.08,146.2L742.43,132.76L742.55,125.68L743.03,90.3L743.5,96.67L743.62,106.57L744.92,158.23L745.04,157.52L745.16,164.6L745.39,139.13L745.51,128.51L745.87,113.65L746.34,120.73L746.46,128.51L747.53,196.44L747.64,194.32L747.88,202.81L748,199.27L748.12,168.85L749.07,95.96L749.18,102.33L750.72,185.12L750.84,178.04L751.79,85.35L752.03,91.01L752.14,100.91L752.85,168.85L753.09,147.62L753.21,139.13L753.33,141.25L753.68,137L753.8,128.51L754.39,95.25L754.87,102.33L754.99,102.33L755.81,139.13L756.29,127.8L756.41,122.85L757.59,81.81L757.71,88.18L758.89,113.65L759.01,115.77L759.25,120.02L759.49,115.77L759.6,110.82L760.43,78.27L760.67,93.13L760.79,108.7L760.91,110.82L761.02,126.39L761.38,145.49L761.85,143.37L761.97,136.29L762.8,78.27L762.92,67.66L764.93,127.1L765.05,124.27L765.76,89.59L766,108.7L766.12,115.07L766.23,110.11L766.47,127.8L766.59,145.49L766.95,136.29L767.42,149.74L767.54,150.45L767.89,160.35L768.01,146.91L768.13,135.59L768.72,96.67L769.08,106.57L769.2,117.19L769.67,144.08L770.14,141.96L770.26,142.66L770.85,138.42L770.97,141.96L771.09,144.08L771.33,151.86L771.44,139.13L771.56,129.93L771.92,151.15L772.04,148.32L772.16,155.4L772.27,154.69L772.39,163.18L772.75,155.4L773.1,163.18L773.22,162.48L773.46,159.65L773.58,163.18L773.69,151.15L774.52,132.05L774.76,134.17L774.88,134.17L776.42,146.2L776.54,145.49L776.65,137L777.37,121.43L777.48,124.27L777.6,129.93L777.84,137.71L778.31,133.46L778.43,132.76L778.79,136.29L778.9,144.08L780.09,117.19L780.44,120.73L780.56,127.1L780.68,132.76L781.04,120.02L781.15,114.36L781.27,112.24L781.51,112.94L781.63,124.27L782.22,144.08L782.58,137.71L782.69,136.29L782.93,146.2L783.05,141.96L783.17,136.29L783.64,148.32L784.11,142.66L784.23,144.79L784.47,146.2L784.59,154.69L784.83,156.82L784.94,153.99L785.06,153.28L785.89,111.53L786.13,112.94L786.25,122.85L787.31,155.4L787.55,153.28L787.67,152.57L787.79,153.99L787.9,149.74L788.02,140.54L788.5,115.77L788.85,130.63L788.97,125.68L789.92,154.69L790.04,151.15L790.15,153.28L790.39,157.52L790.63,153.28L790.75,151.86L791.57,117.9L791.93,129.22L792.05,134.88L792.17,133.46L792.29,136.29L792.4,140.54L793,183.71L793.47,177.34L793.59,167.43L794.3,120.73L794.53,124.27L794.65,127.8L795.72,175.21L795.84,178.04L796.31,191.49L796.43,190.07L796.55,176.63L797.14,107.99L797.5,117.9L797.61,141.96L798.44,177.34L798.56,174.51L798.68,170.26L799.15,178.04L799.27,170.26L799.39,163.89L800.22,115.07L800.34,122.85L800.46,148.32L801.52,207.06L801.64,209.18L801.88,213.43L801.99,211.3L802.11,195.03L802.82,119.31L803.18,132.05L803.3,141.96L803.42,144.79L803.65,137.71L803.77,134.88L804.36,156.82L804.48,170.26L804.72,180.17L804.96,163.89L805.07,147.62L805.55,117.9L805.9,123.56L806.02,132.76L806.85,156.11L807.09,153.28L807.2,154.69L807.44,157.52L807.68,154.69L807.8,150.45L808.63,134.17L808.74,137.71L809.1,175.21L809.22,184.41L810.05,202.1L810.17,200.69L811.59,134.17L811.7,139.13L811.82,142.66L812.3,147.62L812.41,146.2L812.53,151.86L813.72,134.17L813.84,127.8L814.31,120.73L814.55,124.27L814.66,127.1L815.73,137.71L815.85,137L816.09,135.59L816.2,137L816.32,153.28L816.44,152.57L816.56,145.49L816.8,126.39L817.27,136.29L817.39,140.54L818.22,201.4L818.34,190.78L818.45,184.41L819.87,138.42L819.99,134.17L821.41,168.14L821.53,167.43L821.65,158.94L822.01,163.18L822.12,160.35L822.24,153.99L822.84,129.22L823.07,137L823.19,140.54L824.61,179.46L824.73,180.87L825.8,128.51L826.03,138.42L826.15,139.83L826.39,138.42L826.51,132.76L826.74,132.76L826.86,134.17L826.98,133.46L827.1,134.88L827.22,129.22L827.33,129.93L827.57,127.1L827.69,124.27L828.52,93.84L828.76,101.62L828.87,106.57L829.94,121.43L830.18,119.31L830.29,117.19L830.53,118.6L830.65,124.27L831.36,103.74L831.48,112.94L831.6,115.77L832.43,140.54L832.54,127.8L833.26,157.52L833.61,153.99L833.73,151.15L834.91,173.8L835.03,172.38L835.27,184.41L835.62,177.34L835.74,175.21L835.86,175.92L835.98,168.14L836.81,140.54L836.93,151.86L837.04,157.52L837.52,180.17L837.64,189.37L837.75,177.34L838.11,211.3L838.23,206.35L838.35,204.93L838.82,221.21L839.06,206.35L839.18,185.12L840,146.2L840.24,153.28L840.36,159.65L841.66,199.27L841.78,200.69L842.14,173.09L842.25,162.48L842.73,139.13L842.96,151.86L843.08,166.01L843.56,187.95L844.03,180.17L844.15,174.51L845.81,138.42L846.16,143.37L846.28,144.79L847.11,151.86L847.23,153.28L847.58,160.35L847.7,151.86L847.82,148.32L848.06,146.91L848.17,139.13L848.41,127.8L849,134.17L849.12,134.17L849.24,134.88L849.6,132.76L849.71,129.93L850.07,132.05L850.42,131.34L850.54,130.63L851.02,116.48L851.14,120.73L851.25,124.27L851.49,131.34L851.61,141.96L852.79,171.68L852.91,171.68L853.27,175.92L853.38,163.89L854.1,115.77L854.33,127.1L854.45,142.66L855.63,163.89L855.75,162.48L855.87,163.89L856.11,158.23L856.23,149.74L856.94,105.16L857.17,114.36L857.29,123.56L858.24,155.4L858.6,152.57L858.71,149.03L859.78,131.34L859.9,132.76L860.02,136.29L861.67,169.55L861.79,168.85L861.91,162.48L862.98,126.39L863.09,144.79L863.45,149.03L863.57,152.57L864.52,166.72L864.63,166.01L864.75,162.48L865.34,140.54L865.58,146.91L865.7,164.6L866.29,179.46L866.41,183L867.24,190.78L867.36,190.78L868.3,161.77L868.66,169.55L868.78,173.09L868.9,172.38L869.02,174.51L869.13,189.37L869.61,217.67L870.08,207.76L870.2,209.89L870.44,213.43L870.55,204.23L870.67,194.32L870.91,187.24L871.03,175.21L871.26,167.43L871.5,184.41L871.62,184.41L872.92,207.76L873.04,205.64L873.16,195.73L873.99,153.99L874.11,156.82L874.23,176.63L874.94,206.35L875.17,204.93L875.29,202.81L875.65,217.67L875.76,224.04L876,210.59L876.12,182.29L876.83,142.66L877.07,153.28L877.19,157.52L878.37,175.92L878.49,175.92L878.61,177.34L878.84,171.68L878.96,169.55L879.67,150.45L880.03,155.4L880.15,156.11L880.38,153.99L880.62,156.11L880.74,159.65L881.21,146.2L881.45,154.69L881.57,159.65L881.69,160.35L881.8,154.69L882.16,144.79L882.28,160.35L882.51,145.49L882.63,163.89L882.75,163.18L882.87,164.6L882.99,164.6L883.11,169.55L884.05,205.64L884.17,185.12L884.41,189.37L884.53,184.41L884.65,173.8L885.12,144.79L885.59,154.69L885.71,159.65L886.07,173.09L886.18,184.41L886.78,205.64L887.01,198.57L887.13,199.98L887.37,196.44L887.49,186.54L888.2,151.86L888.67,155.4L888.79,158.23L889.97,183L890.33,178.75L890.45,175.92L891.39,157.52L891.51,158.23L892.93,171.68L893.05,169.55L894,153.28L894.24,154.69L894.36,156.11L894.95,163.89L895.07,166.01L895.42,170.26L895.54,175.21L896.01,200.69L896.37,193.61L896.49,179.46L897.2,166.01L897.32,168.14L897.43,169.55L899.21,143.37L899.33,139.83L899.45,139.13L899.57,142.66L899.68,144.79L900.75,161.77L900.87,162.48L900.99,161.77L901.34,162.48L901.46,163.89L902.41,156.82L902.53,157.52L902.64,161.77L903.24,165.31L903.35,166.72L904.18,175.92L904.3,177.34L905.37,187.95L905.49,189.37L906.55,194.32L906.67,194.32L907.02,194.32L907.14,195.73L907.97,195.73L908.09,196.44L909.63,186.54L909.75,185.83L910.34,170.97L910.46,164.6L910.81,146.2L911.17,161.77L911.29,165.31L912.12,185.83L912.35,182.29L912.47,175.92L913.66,147.62L914.13,150.45L914.25,151.15L915.08,147.62L915.43,148.32L915.55,148.32L916.14,140.54L916.26,132.05L916.85,144.79L916.97,154.69L917.09,158.94L917.56,151.15L917.68,151.86L918.75,157.52L918.87,156.11L919.22,153.28L919.46,156.82L919.58,158.94L920.64,167.43L920.76,167.43L921,168.14L921.12,165.31L921.47,170.97L921.59,173.8L921.71,180.87L921.94,158.23L922.06,156.11L923.13,192.9L923.48,188.66L923.6,192.2L924.31,232.53L924.43,223.33L924.55,197.15L925.02,168.85L925.26,170.97L925.38,190.07L926.21,233.95L926.33,226.16L927.75,163.18L927.87,160.35L927.98,153.28L928.34,174.51L928.46,188.66L928.81,214.13L929.29,202.1L929.4,195.03L930.47,178.04L930.59,178.75L930.71,178.75L930.83,178.04L930.94,180.87L931.06,189.37L931.18,186.54L931.42,190.78L931.65,189.37L931.77,191.49L931.89,197.15L932.6,195.73L932.72,195.03L933.31,174.51L933.43,168.14L933.67,166.01L933.79,171.68L934.26,209.18L934.61,206.35L934.73,199.27L934.97,202.81L935.44,201.4L935.56,199.98L935.92,198.57L936.04,195.73L936.15,192.2L936.51,201.4L936.63,201.4L936.86,196.44L936.98,194.32L937.1,192.9L937.22,197.86L937.34,200.69L937.57,198.57L937.69,204.93L937.81,207.76L937.93,206.35L938.29,209.89L938.4,209.18L938.52,212.72L939.11,203.52L939.23,205.64L939.35,212.01L940.3,207.76L940.42,209.89L940.89,207.76L941.01,212.01L941.36,219.09L941.48,215.55L941.6,205.64L942.07,201.4L942.31,202.81L942.43,219.79L942.9,239.61L943.14,224.75L943.26,217.67L943.73,219.79L943.97,213.43L944.09,217.67L944.92,178.75L945.03,190.07L945.15,197.15L945.39,194.32L945.75,202.1L945.86,198.57L945.98,195.03L946.22,192.9L946.34,195.73L946.46,200.69L947.4,161.06L947.52,168.85L947.64,168.85L947.88,159.65L948.11,170.26L948.47,161.06L948.59,161.77L949.18,155.4L949.3,158.23L949.42,160.35L950.24,170.26L950.36,167.43L950.48,165.31L951.07,180.87L951.19,183.71L952.85,214.84L953.21,214.13L953.32,210.59L953.56,194.32L953.92,221.21L954.03,222.62L954.27,239.61L954.74,220.5L954.86,221.92L956.28,197.15L956.64,201.4L956.76,200.69L957.7,198.57L957.82,199.27L959.36,190.07L959.6,192.2L959.72,192.9L960.66,199.98L960.78,209.18L961.97,193.61L962.09,194.32L963.39,205.64L963.51,203.52L963.86,204.23L963.98,204.93L964.57,206.35L964.69,202.81L965.16,213.43L965.28,207.76L965.4,203.52L966.11,225.45L966.35,223.33L966.47,194.32L967.06,216.96L967.18,206.35L967.3,198.57L967.53,189.37L968.01,198.57L968.12,196.44L968.6,201.4L968.84,198.57L968.95,197.86L969.55,184.41L969.66,190.78L969.78,195.73L969.9,197.15L970.02,194.32L970.14,189.37L970.49,181.58L970.73,185.83L970.85,192.9L972.15,220.5L972.39,217.67L972.51,217.67L972.74,218.38L972.86,214.13L973.45,192.2L973.81,192.9L973.93,193.61L974.05,194.32L974.16,200.69L974.99,211.3L975.11,207.06L975.23,206.35L975.7,203.52L975.82,204.23L975.94,201.4L976.3,196.44L976.41,199.98L976.53,200.69L976.89,205.64L977.01,216.96L977.48,237.48L977.83,231.12L977.95,225.45L979.14,171.68L979.26,179.46L980.08,195.73L980.2,194.32L981.15,177.34L981.27,173.8L982.69,152.57L982.81,153.28L982.93,154.69L983.28,157.52L983.4,159.65L984.11,161.77L984.23,161.06L984.35,159.65L984.7,157.52L984.82,158.94L984.94,161.77L986.6,174.51L986.95,173.09L987.07,171.68L987.19,172.38L987.31,167.43L987.78,163.89L987.9,162.48L988.49,159.65L988.61,160.35L988.73,161.77L989.2,162.48L989.44,161.77L989.56,161.77L990.39,153.28L990.62,156.11L990.74,156.82L991.45,171.68L991.57,175.21L991.81,178.04L991.93,187.95L992.16,180.87L992.4,202.81L992.52,208.47L992.64,211.3L992.75,200.69L992.87,187.95L993.23,148.32L993.58,182.29L993.7,193.61L993.94,205.64L994.29,189.37L994.41,186.54L995.83,174.51L995.95,174.51L996.31,170.26L996.42,170.97L996.54,173.09L996.66,172.38L996.78,174.51L997.02,174.51L997.14,174.51L997.73,176.63L997.85,179.46L998.56,197.15L998.79,192.9L998.91,190.07L999.86,182.29L999.98,186.54L1000.1,189.37L1000.57,186.54L1000.69,181.58L1000.92,180.17L1001.04,181.58L1001.16,183.71L1001.63,180.17L1001.99,180.87L1002.11,180.87L1002.46,179.46L1002.58,181.58L1002.7,183L1002.94,182.29L1003.06,184.41L1003.17,187.24L1003.41,185.83L1003.53,188.66L1003.77,187.24L1003.88,194.32L1004,195.73L1004.24,190.07L1004.36,185.12L1004.71,179.46L1004.83,185.83L1004.95,203.52L1006.02,255.88L1006.13,255.88L1006.73,268.62L1006.85,267.2L1006.96,248.1L1007.44,200.69L1007.67,212.72L1007.79,234.65L1008.98,270.03L1009.09,273.57L1010.28,230.41L1010.52,235.36L1010.63,238.19L1010.87,242.44L1011.23,236.78L1011.34,237.48L1011.46,236.07L1011.7,233.24L1011.94,238.19L1012.06,238.9L1012.88,222.62L1013,215.55L1014.78,160.35L1014.9,161.06L1015.13,163.18L1015.25,168.14L1015.61,170.26L1015.73,169.55L1015.84,165.31L1018.09,233.24L1018.21,241.02L1018.33,243.14L1018.45,238.19L1018.57,233.95L1018.8,226.87L1019.04,233.95L1019.16,241.02L1020.11,262.25L1020.23,260.13L1020.34,262.25L1020.94,264.37L1021.05,263.67L1021.17,253.76L1021.88,221.21L1022.24,224.75L1022.36,221.21L1023.3,212.72L1023.42,211.3L1025.67,167.43L1025.79,172.38L1025.91,178.04L1027.45,158.94L1027.57,164.6L1027.8,173.8L1028.28,166.72L1028.4,166.72L1029.34,168.14L1029.46,168.14L1029.7,170.97L1030.29,169.55L1030.41,168.14L1030.88,145.49L1031.12,149.03L1031.24,158.94L1031.36,161.06L1031.59,154.69L1031.71,149.03L1032.66,135.59L1032.78,137.71L1032.9,139.13L1033.72,135.59L1033.84,137L1034.67,130.63L1034.79,132.76L1034.91,132.05L1035.03,134.17L1035.15,137L1035.5,139.13L1035.74,134.88L1035.86,137.71L1035.97,137.71L1036.33,149.03L1036.8,145.49L1036.92,145.49L1037.28,151.86L1037.63,146.2L1037.75,147.62L1037.99,148.32L1038.11,143.37L1038.34,144.79L1038.46,143.37L1038.58,138.42L1038.7,137.71L1038.93,138.42L1039.05,140.54L1039.17,139.83L1039.29,142.66L1039.64,141.25L1039.76,141.25L1040,146.91" style="vector-effect: none; fill: none; stroke: rgb(255, 0, 0); stroke-opacity: 1; stroke-width: 0.25px; opacity: 1;"/></g><g class="points"/><g class="text"/></g><g class="trace scatter tracee22285" style="stroke-miterlimit: 2; opacity: 1;"><g class="fills"/><g class="errorbars"/><g class="lines"><path class="js-line" d="M0,117.19L0.83,117.19L0.95,95.96L2.37,95.96L2.49,117.19L3.67,117.19L3.79,95.96L5.21,95.96L5.33,117.19L6.51,117.19L6.63,95.96L8.05,95.96L8.17,117.19L9.35,117.19L9.47,95.96L10.89,95.96L11.01,117.19L12.2,117.19L12.31,95.96L13.74,95.96L13.85,117.19L15.04,117.19L15.16,95.96L16.58,95.96L16.7,117.19L17.88,117.19L18,95.96L19.42,95.96L19.54,117.19L20.72,117.19L20.84,95.96L22.26,95.96L22.38,117.19L23.56,117.19L23.68,95.96L25.1,95.96L25.22,117.19L26.41,117.19L26.52,95.96L27.94,95.96L28.06,117.19L29.25,117.19L29.37,95.96L30.79,95.96L30.91,117.19L32.09,117.19L32.21,95.96L33.63,95.96L33.75,117.19L34.93,117.19L35.05,95.96L36.47,95.96L36.59,117.19L37.77,117.19L37.89,95.96L39.31,95.96L39.43,117.19L40.61,117.19L40.73,95.96L42.15,95.96L42.27,117.19L43.46,117.19L43.58,95.96L45,95.96L45.11,117.19L46.3,117.19L46.42,95.96L47.84,95.96L47.96,117.19L49.14,117.19L49.26,95.96L50.68,95.96L50.8,117.19L51.98,117.19L52.1,95.96L53.52,95.96L53.64,117.19L54.82,117.19L54.94,95.96L56.36,95.96L56.48,117.19L57.67,117.19L57.78,95.96L59.21,95.96L59.32,117.19L60.51,117.19L60.63,95.96L62.05,95.96L62.17,117.19L63.35,117.19L63.47,95.96L64.89,95.96L65.01,117.19L66.19,117.19L66.31,95.96L67.73,95.96L67.85,117.19L69.03,117.19L69.15,95.96L70.57,95.96L70.69,117.19L71.88,117.19L71.99,95.96L73.41,95.96L73.53,117.19L74.72,117.19L74.84,95.96L76.26,95.96L76.37,117.19L77.56,117.19L77.68,95.96L79.1,95.96L79.22,117.19L80.4,117.19L80.52,95.96L81.94,95.96L82.06,117.19L83.24,117.19L83.36,95.96L84.78,95.96L84.9,117.19L86.08,117.19L86.2,95.96L87.62,95.96L87.74,117.19L88.93,117.19L89.04,95.96L90.47,95.96L90.58,117.19L91.77,117.19L91.89,95.96L93.31,95.96L93.43,117.19L94.61,117.19L94.73,95.96L96.15,95.96L96.27,117.19L97.45,117.19L97.57,95.96L98.99,95.96L99.11,117.19L100.29,117.19L100.41,95.96L101.83,95.96L101.95,117.19L103.14,117.19L103.25,95.96L104.67,95.96L104.79,117.19L105.98,117.19L106.1,95.96L107.52,95.96L107.64,117.19L108.82,117.19L108.94,95.96L110.36,95.96L110.48,117.19L111.66,117.19L111.78,95.96L113.2,95.96L113.32,117.19L114.5,117.19L114.62,95.96L116.04,95.96L116.16,117.19L117.34,117.19L117.46,95.96L118.88,95.96L119,117.19L120.19,117.19L120.31,95.96L121.73,95.96L121.84,117.19L123.03,117.19L123.15,95.96L124.57,95.96L124.69,117.19L125.87,117.19L125.99,95.96L127.41,95.96L127.53,117.19L128.71,117.19L128.83,95.96L130.25,95.96L130.37,117.19L131.55,117.19L131.67,95.96L133.09,95.96L133.21,117.19L134.4,117.19L134.51,95.96L135.94,95.96L136.05,117.19L137.24,117.19L137.36,95.96L138.78,95.96L138.9,117.19L140.08,117.19L140.2,95.96L141.62,95.96L141.74,117.19L142.92,117.19L143.04,95.96L144.46,95.96L144.58,117.19L145.76,117.19L145.88,95.96L147.3,95.96L147.42,117.19L148.61,117.19L148.72,95.96L150.14,95.96L150.26,117.19L151.45,117.19L151.57,95.96L152.99,95.96L153.1,117.19L154.29,117.19L154.41,95.96L155.83,95.96L155.95,117.19L157.13,117.19L157.25,95.96L158.67,95.96L158.79,117.19L159.97,117.19L160.09,95.96L161.51,95.96L161.63,117.19L162.81,117.19L162.93,95.96L164.35,95.96L164.47,117.19L165.66,117.19L165.77,95.96L167.2,95.96L167.31,117.19L168.5,117.19L168.62,95.96L170.04,95.96L170.16,117.19L171.34,117.19L171.46,95.96L172.88,95.96L173,117.19L174.18,117.19L174.3,95.96L175.72,95.96L175.84,117.19L177.02,117.19L177.14,95.96L178.56,95.96L178.68,117.19L179.87,117.19L179.98,95.96L181.4,95.96L181.52,117.19L182.71,117.19L182.83,95.96L184.25,95.96L184.37,117.19L185.55,117.19L185.67,95.96L187.09,95.96L187.21,117.19L188.39,117.19L188.51,95.96L189.93,95.96L190.05,117.19L191.23,117.19L191.35,95.96L192.77,95.96L192.89,117.19L194.07,117.19L194.19,95.96L195.61,95.96L195.73,117.19L196.92,117.19L197.04,95.96L198.46,95.96L198.57,117.19L199.76,117.19L199.88,95.96L201.3,95.96L201.42,117.19L202.6,117.19L202.72,95.96L204.14,95.96L204.26,117.19L205.44,117.19L205.56,95.96L206.98,95.96L207.1,117.19L208.28,117.19L208.4,95.96L209.82,95.96L209.94,117.19L211.13,117.19L211.24,95.96L212.67,95.96L212.78,117.19L213.97,117.19L214.09,95.96L215.51,95.96L215.63,117.19L216.81,117.19L216.93,95.96L218.35,95.96L218.47,117.19L219.65,117.19L219.77,95.96L221.19,95.96L221.31,117.19L222.49,117.19L222.61,95.96L224.03,95.96L224.15,117.19L225.34,117.19L225.45,95.96L226.87,95.96L226.99,117.19L228.18,117.19L228.3,95.96L229.72,95.96L229.83,117.19L231.02,117.19L231.14,95.96L232.56,95.96L232.68,117.19L233.86,117.19L233.98,95.96L235.4,95.96L235.52,117.19L236.7,117.19L236.82,95.96L238.24,95.96L238.36,117.19L239.54,117.19L239.66,95.96L241.08,95.96L241.2,117.19L242.39,117.19L242.5,95.96L243.93,95.96L244.04,117.19L245.23,117.19L245.35,95.96L246.77,95.96L246.89,117.19L248.07,117.19L248.19,95.96L249.61,95.96L249.73,117.19L250.91,117.19L251.03,95.96L252.45,95.96L252.57,117.19L253.75,117.19L253.87,95.96L255.29,95.96L255.41,117.19L256.6,117.19L256.71,95.96L258.14,95.96L258.25,117.19L259.44,117.19L259.56,95.96L260.98,95.96L261.1,117.19L262.28,117.19L262.4,95.96L263.82,95.96L263.94,117.19L265.12,117.19L265.24,95.96L266.66,95.96L266.78,117.19L267.96,117.19L268.08,95.96L269.5,95.96L269.62,117.19L270.8,117.19L270.92,95.96L272.34,95.96L272.46,117.19L273.65,117.19L273.77,95.96L275.19,95.96L275.3,117.19L276.49,117.19L276.61,95.96L278.03,95.96L278.15,117.19L279.33,117.19L279.45,95.96L280.87,95.96L280.99,117.19L282.17,117.19L282.29,95.96L283.71,95.96L283.83,117.19L285.01,117.19L285.13,95.96L286.55,95.96L286.67,117.19L287.86,117.19L287.97,95.96L289.4,95.96L289.51,117.19L290.7,117.19L290.82,95.96L292.24,95.96L292.36,117.19L293.54,117.19L293.66,95.96L295.08,95.96L295.2,117.19L296.38,117.19L296.5,95.96L297.92,95.96L298.04,117.19L299.22,117.19L299.34,95.96L300.76,95.96L300.88,117.19L302.07,117.19L302.18,95.96L303.6,95.96L303.72,117.19L304.91,117.19L305.03,95.96L306.45,95.96L306.56,117.19L307.75,117.19L307.87,95.96L309.29,95.96L309.41,117.19L310.59,117.19L310.71,95.96L312.13,95.96L312.25,117.19L313.43,117.19L313.55,95.96L314.97,95.96L315.09,117.19L316.27,117.19L316.39,95.96L317.81,95.96L317.93,117.19L319.12,117.19L319.23,95.96L320.66,95.96L320.77,117.19L321.96,117.19L322.08,95.96L323.5,95.96L323.62,117.19L324.8,117.19L324.92,95.96L326.34,95.96L326.46,117.19L327.64,117.19L327.76,95.96L329.18,95.96L329.3,117.19L330.48,117.19L330.6,95.96L332.02,95.96L332.14,117.19L333.33,117.19L333.44,95.96L334.87,95.96L334.98,117.19L336.17,117.19L336.29,95.96L337.71,95.96L337.83,117.19L339.01,117.19L339.13,95.96L340.55,95.96L340.67,117.19L341.85,117.19L341.97,95.96L343.39,95.96L343.51,117.19L344.69,117.19L344.81,95.96L346.23,95.96L346.35,117.19L347.54,117.19L347.65,95.96L349.07,95.96L349.19,117.19L350.38,117.19L350.5,95.96L351.92,95.96L352.03,117.19L353.22,117.19L353.34,95.96L354.76,95.96L354.88,117.19L356.06,117.19L356.18,95.96L357.6,95.96L357.72,117.19L358.9,117.19L359.02,95.96L360.44,95.96L360.56,117.19L361.74,117.19L361.86,95.96L363.28,95.96L363.4,117.19L364.59,117.19L364.7,95.96L366.13,95.96L366.24,117.19L367.43,117.19L367.55,95.96L368.97,95.96L369.09,117.19L370.27,117.19L370.39,95.96L371.81,95.96L371.93,117.19L373.11,117.19L373.23,95.96L374.65,95.96L374.77,117.19L375.95,117.19L376.07,95.96L377.49,95.96L377.61,117.19L378.8,117.19L378.91,95.96L380.33,95.96L380.45,117.19L381.64,117.19L381.76,95.96L383.18,95.96L383.3,117.19L384.48,117.19L384.6,95.96L386.02,95.96L386.14,117.19L387.32,117.19L387.44,95.96L388.86,95.96L388.98,117.19L390.16,117.19L390.28,95.96L391.7,95.96L391.82,117.19L393,117.19L393.12,95.96L394.54,95.96L394.66,117.19L395.85,117.19L395.96,95.96L397.39,95.96L397.5,117.19L398.69,117.19L398.81,95.96L400.23,95.96L400.35,117.19L401.53,117.19L401.65,95.96L403.07,95.96L403.19,117.19L404.37,117.19L404.49,95.96L405.91,95.96L406.03,117.19L407.21,117.19L407.33,95.96L408.75,95.96L408.87,117.19L410.06,117.19L410.17,95.96L411.6,95.96L411.71,117.19L412.9,117.19L413.02,95.96L414.44,95.96L414.56,117.19L415.74,117.19L415.86,95.96L417.28,95.96L417.4,117.19L418.58,117.19L418.7,95.96L420.12,95.96L420.24,117.19L421.42,117.19L421.54,95.96L422.96,95.96L423.08,117.19L424.27,117.19L424.38,95.96L425.8,95.96L425.92,117.19L427.11,117.19L427.23,95.96L428.65,95.96L428.76,117.19L429.95,117.19L430.07,95.96L431.49,95.96L431.61,117.19L432.79,117.19L432.91,95.96L434.33,95.96L434.45,117.19L435.63,117.19L435.75,95.96L437.17,95.96L437.29,117.19L438.47,117.19L438.59,95.96L440.01,95.96L440.13,117.19L441.32,117.19L441.43,95.96L442.86,95.96L442.97,117.19L444.16,117.19L444.28,95.96L445.7,95.96L445.82,117.19L447,117.19L447.12,95.96L448.54,95.96L448.66,117.19L449.84,117.19L449.96,95.96L451.38,95.96L451.5,117.19L452.68,117.19L452.8,95.96L454.22,95.96L454.34,117.19L455.53,117.19L455.64,95.96L457.06,95.96L457.18,117.19L458.37,117.19L458.49,95.96L459.91,95.96L460.03,117.19L461.21,117.19L461.33,95.96L462.75,95.96L462.87,117.19L464.05,117.19L464.17,95.96L465.59,95.96L465.71,117.19L466.89,117.19L467.01,95.96L468.43,95.96L468.55,117.19L469.73,117.19L469.85,95.96L471.27,95.96L471.39,117.19L472.58,117.19L472.69,95.96L474.12,95.96L474.23,117.19L475.42,117.19L475.54,95.96L476.96,95.96L477.08,117.19L478.26,117.19L478.38,95.96L479.8,95.96L479.92,117.19L481.1,117.19L481.22,95.96L482.64,95.96L482.76,117.19L483.94,117.19L484.06,95.96L485.48,95.96L485.6,117.19L486.79,117.19L486.9,95.96L488.33,95.96L488.44,117.19L489.63,117.19L489.75,95.96L491.17,95.96L491.29,117.19L492.47,117.19L492.59,95.96L494.01,95.96L494.13,117.19L495.31,117.19L495.43,95.96L496.85,95.96L496.97,117.19L498.15,117.19L498.27,95.96L499.69,95.96L499.81,117.19L501,117.19L501.11,95.96L502.53,95.96L502.65,117.19L503.84,117.19L503.96,95.96L505.38,95.96L505.49,117.19L506.68,117.19L506.8,95.96L508.22,95.96L508.34,117.19L509.52,117.19L509.64,95.96L511.06,95.96L511.18,117.19L512.36,117.19L512.48,95.96L513.9,95.96L514.02,117.19L515.2,117.19L515.32,95.96L516.74,95.96L516.86,117.19L518.05,117.19L518.16,95.96L519.59,95.96L519.7,117.19L520.89,117.19L521.01,95.96L522.43,95.96L522.55,117.19L523.73,117.19L523.85,95.96L525.27,95.96L525.39,117.19L526.57,117.19L526.69,95.96L528.11,95.96L528.23,117.19L529.41,117.19L529.53,95.96L530.95,95.96L531.07,117.19L532.26,117.19L532.37,95.96L533.79,95.96L533.91,117.19L535.1,117.19L535.22,95.96L536.64,95.96L536.76,117.19L537.94,117.19L538.06,95.96L539.48,95.96L539.6,117.19L540.78,117.19L540.9,95.96L542.32,95.96L542.44,117.19L543.62,117.19L543.74,95.96L545.16,95.96L545.28,117.19L546.46,117.19L546.58,95.96L548,95.96L548.12,117.19L549.31,117.19L549.43,95.96L550.85,95.96L550.96,117.19L552.15,117.19L552.27,95.96L553.69,95.96L553.81,117.19L554.99,117.19L555.11,95.96L556.53,95.96L556.65,117.19L557.83,117.19L557.95,95.96L559.37,95.96L559.49,117.19L560.67,117.19L560.79,95.96L562.21,95.96L562.33,117.19L563.52,117.19L563.63,95.96L565.06,95.96L565.17,117.19L566.36,117.19L566.48,95.96L567.9,95.96L568.02,117.19L569.2,117.19L569.32,95.96L570.74,95.96L570.86,117.19L572.04,117.19L572.16,95.96L573.58,95.96L573.7,117.19L574.88,117.19L575,95.96L576.42,95.96L576.54,117.19L577.73,117.19L577.84,95.96L579.26,95.96L579.38,117.19L580.57,117.19L580.69,95.96L582.11,95.96L582.22,117.19L583.41,117.19L583.53,95.96L584.95,95.96L585.07,117.19L586.25,117.19L586.37,95.96L587.79,95.96L587.91,117.19L589.09,117.19L589.21,95.96L590.63,95.96L590.75,117.19L591.93,117.19L592.05,95.96L593.47,95.96L593.59,117.19L594.78,117.19L594.89,95.96L596.32,95.96L596.43,117.19L597.62,117.19L597.74,95.96L599.16,95.96L599.28,117.19L600.46,117.19L600.58,95.96L602,95.96L602.12,117.19L603.3,117.19L603.42,95.96L604.84,95.96L604.96,117.19L606.14,117.19L606.26,95.96L607.68,95.96L607.8,117.19L608.99,117.19L609.1,95.96L610.52,95.96L610.64,117.19L611.83,117.19L611.95,95.96L613.37,95.96L613.49,117.19L614.67,117.19L614.79,95.96L616.21,95.96L616.33,117.19L617.51,117.19L617.63,95.96L619.05,95.96L619.17,117.19L620.35,117.19L620.47,95.96L621.89,95.96L622.01,117.19L623.19,117.19L623.31,95.96L624.73,95.96L624.85,117.19L626.04,117.19L626.16,95.96L627.58,95.96L627.69,117.19L628.88,117.19L629,95.96L630.42,95.96L630.54,117.19L631.72,117.19L631.84,95.96L633.26,95.96L633.38,117.19L634.56,117.19L634.68,95.96L636.1,95.96L636.22,117.19L637.4,117.19L637.52,95.96L638.94,95.96L639.06,117.19L640.25,117.19L640.36,95.96L641.79,95.96L641.9,117.19L643.09,117.19L643.21,95.96L644.63,95.96L644.75,117.19L645.93,117.19L646.05,95.96L647.47,95.96L647.59,117.19L648.77,117.19L648.89,95.96L650.31,95.96L650.43,117.19L651.61,117.19L651.73,95.96L653.15,95.96L653.27,117.19L654.46,117.19L654.57,95.96L655.99,95.96L656.11,117.19L657.3,117.19L657.42,95.96L658.84,95.96L658.95,117.19L660.14,117.19L660.26,95.96L661.68,95.96L661.8,117.19L662.98,117.19L663.1,95.96L664.52,95.96L664.64,117.19L665.82,117.19L665.94,95.96L667.36,95.96L667.48,117.19L668.66,117.19L668.78,95.96L670.2,95.96L670.32,117.19L671.51,117.19L671.62,95.96L673.05,95.96L673.16,117.19L674.35,117.19L674.47,95.96L675.89,95.96L676.01,117.19L677.19,117.19L677.31,95.96L678.73,95.96L678.85,117.19L680.03,117.19L680.15,95.96L681.57,95.96L681.69,117.19L682.87,117.19L682.99,95.96L684.41,95.96L684.53,117.19L685.72,117.19L685.83,95.96L687.25,95.96L687.37,117.19L688.56,117.19L688.68,95.96L690.1,95.96L690.22,117.19L691.4,117.19L691.52,95.96L692.94,95.96L693.06,117.19L694.24,117.19L694.36,95.96L695.78,95.96L695.9,117.19L697.08,117.19L697.2,95.96L698.62,95.96L698.74,117.19L699.92,117.19L700.04,95.96L701.46,95.96L701.58,117.19L702.77,117.19L702.89,95.96L704.31,95.96L704.42,117.19L705.61,117.19L705.73,95.96L707.15,95.96L707.27,117.19L708.45,117.19L708.57,95.96L709.99,95.96L710.11,117.19L711.29,117.19L711.41,95.96L712.83,95.96L712.95,117.19L714.13,117.19L714.25,95.96L715.67,95.96L715.79,117.19L716.98,117.19L717.09,95.96L718.52,95.96L718.63,117.19L719.82,117.19L719.94,95.96L721.36,95.96L721.48,117.19L722.66,117.19L722.78,95.96L724.2,95.96L724.32,117.19L725.5,117.19L725.62,95.96L727.04,95.96L727.16,117.19L728.34,117.19L728.46,95.96L729.88,95.96L730,117.19L731.19,117.19L731.3,95.96L732.72,95.96L732.84,117.19L734.03,117.19L734.15,95.96L735.57,95.96L735.68,117.19L736.87,117.19L736.99,95.96L738.41,95.96L738.53,117.19L739.71,117.19L739.83,95.96L741.25,95.96L741.37,117.19L742.55,117.19L742.67,95.96L744.09,95.96L744.21,117.19L745.39,117.19L745.51,95.96L746.93,95.96L747.05,117.19L748.24,117.19L748.35,95.96L749.78,95.96L749.89,117.19L751.08,117.19L751.2,95.96L752.62,95.96L752.74,117.19L753.92,117.19L754.04,95.96L755.46,95.96L755.58,117.19L756.76,117.19L756.88,95.96L758.3,95.96L758.42,117.19L759.6,117.19L759.72,95.96L761.14,95.96L761.26,117.19L762.45,117.19L762.56,95.96L763.98,95.96L764.1,117.19L765.29,117.19L765.41,95.96L766.83,95.96L766.95,117.19L768.13,117.19L768.25,95.96L769.67,95.96L769.79,117.19L770.97,117.19L771.09,95.96L772.51,95.96L772.63,117.19L773.81,117.19L773.93,95.96L775.35,95.96L775.47,117.19L776.65,117.19L776.77,95.96L778.19,95.96L778.31,117.19L779.5,117.19L779.62,95.96L781.04,95.96L781.15,117.19L782.34,117.19L782.46,95.96L783.88,95.96L784,117.19L785.18,117.19L785.3,95.96L786.72,95.96L786.84,117.19L788.02,117.19L788.14,95.96L789.56,95.96L789.68,117.19L790.86,117.19L790.98,95.96L792.4,95.96L792.52,117.19L793.71,117.19L793.82,95.96L795.25,95.96L795.36,117.19L796.55,117.19L796.67,95.96L798.09,95.96L798.21,117.19L799.39,117.19L799.51,95.96L800.93,95.96L801.05,117.19L802.23,117.19L802.35,95.96L803.77,95.96L803.89,117.19L805.07,117.19L805.19,95.96L806.61,95.96L806.73,117.19L807.92,117.19L808.03,95.96L809.45,95.96L809.57,117.19L810.76,117.19L810.88,95.96L812.3,95.96L812.41,117.19L813.6,117.19L813.72,95.96L815.14,95.96L815.26,117.19L816.44,117.19L816.56,95.96L817.98,95.96L818.1,117.19L819.28,117.19L819.4,95.96L820.82,95.96L820.94,117.19L822.12,117.19L822.24,95.96L823.66,95.96L823.78,117.19L824.97,117.19L825.08,95.96L826.51,95.96L826.62,117.19L827.81,117.19L827.93,95.96L829.35,95.96L829.47,117.19L830.65,117.19L830.77,95.96L832.19,95.96L832.31,117.19L833.49,117.19L833.61,95.96L835.03,95.96L835.15,117.19L836.33,117.19L836.45,95.96L837.87,95.96L837.99,117.19L839.18,117.19L839.29,95.96L840.72,95.96L840.83,117.19L842.02,117.19L842.14,95.96L843.56,95.96L843.68,117.19L844.86,117.19L844.98,95.96L846.4,95.96L846.52,117.19L847.7,117.19L847.82,95.96L849.24,95.96L849.36,117.19L850.54,117.19L850.66,95.96L852.08,95.96L852.2,117.19L853.38,117.19L853.5,95.96L854.92,95.96L855.04,117.19L856.23,117.19L856.35,95.96L857.77,95.96L857.88,117.19L859.07,117.19L859.19,95.96L860.61,95.96L860.73,117.19L861.91,117.19L862.03,95.96L863.45,95.96L863.57,117.19L864.75,117.19L864.87,95.96L866.29,95.96L866.41,117.19L867.59,117.19L867.71,95.96L869.13,95.96L869.25,117.19L870.44,117.19L870.55,95.96L871.98,95.96L872.09,117.19L873.28,117.19L873.4,95.96L874.82,95.96L874.94,117.19L876.12,117.19L876.24,95.96L877.66,95.96L877.78,117.19L878.96,117.19L879.08,95.96L880.5,95.96L880.62,117.19L881.8,117.19L881.92,95.96L883.34,95.96L883.46,117.19L884.65,117.19L884.76,95.96L886.18,95.96L886.3,117.19L887.49,117.19L887.61,95.96L889.03,95.96L889.14,117.19L890.33,117.19L890.45,95.96L891.87,95.96L891.99,117.19L893.17,117.19L893.29,95.96L894.71,95.96L894.83,117.19L896.01,117.19L896.13,95.96L897.55,95.96L897.67,117.19L898.85,117.19L898.97,95.96L900.39,95.96L900.51,117.19L901.7,117.19L901.81,95.96L903.24,95.96L903.35,117.19L904.54,117.19L904.66,95.96L906.08,95.96L906.2,117.19L907.38,117.19L907.5,95.96L908.92,95.96L909.04,117.19L910.22,117.19L910.34,95.96L911.76,95.96L911.88,117.19L913.06,117.19L913.18,95.96L914.6,95.96L914.72,117.19L915.91,117.19L916.02,95.96L917.45,95.96L917.56,117.19L918.75,117.19L918.87,95.96L920.29,95.96L920.41,117.19L921.59,117.19L921.71,95.96L923.13,95.96L923.25,117.19L924.43,117.19L924.55,95.96L925.97,95.96L926.09,117.19L927.27,117.19L927.39,95.96L928.81,95.96L928.93,117.19L930.11,117.19L930.23,95.96L931.65,95.96L931.77,117.19L932.96,117.19L933.08,95.96L934.5,95.96L934.61,117.19L935.8,117.19L935.92,95.96L937.34,95.96L937.46,117.19L938.64,117.19L938.76,95.96L940.18,95.96L940.3,117.19L941.48,117.19L941.6,95.96L943.02,95.96L943.14,117.19L944.32,117.19L944.44,95.96L945.86,95.96L945.98,117.19L947.17,117.19L947.28,95.96L948.71,95.96L948.82,117.19L950.01,117.19L950.13,95.96L951.55,95.96L951.67,117.19L952.85,117.19L952.97,95.96L954.39,95.96L954.51,117.19L955.69,117.19L955.81,95.96L957.23,95.96L957.35,117.19L958.53,117.19L958.65,95.96L960.07,95.96L960.19,117.19L961.38,117.19L961.49,95.96L962.91,95.96L963.03,117.19L964.22,117.19L964.34,95.96L965.76,95.96L965.87,117.19L967.06,117.19L967.18,95.96L968.6,95.96L968.72,117.19L969.9,117.19L970.02,95.96L971.44,95.96L971.56,117.19L972.74,117.19L972.86,95.96L974.28,95.96L974.4,117.19L975.58,117.19L975.7,95.96L977.12,95.96L977.24,117.19L978.43,117.19L978.54,95.96L979.97,95.96L980.08,117.19L981.27,117.19L981.39,95.96L982.81,95.96L982.93,117.19L984.11,117.19L984.23,95.96L985.65,95.96L985.77,117.19L986.95,117.19L987.07,95.96L988.49,95.96L988.61,117.19L989.79,117.19L989.91,95.96L991.33,95.96L991.45,117.19L992.64,117.19L992.75,95.96L994.18,95.96L994.29,117.19L995.48,117.19L995.6,95.96L997.02,95.96L997.14,117.19L998.32,117.19L998.44,95.96L999.86,95.96L999.98,117.19L1001.16,117.19L1001.28,95.96L1002.7,95.96L1002.82,117.19L1004,117.19L1004.12,95.96L1005.54,95.96L1005.66,117.19L1006.85,117.19L1006.96,95.96L1008.38,95.96L1008.5,117.19L1009.69,117.19L1009.81,95.96L1011.23,95.96L1011.34,117.19L1012.53,117.19L1012.65,95.96L1014.07,95.96L1014.19,117.19L1015.37,117.19L1015.49,95.96L1016.91,95.96L1017.03,117.19L1018.21,117.19L1018.33,95.96L1019.75,95.96L1019.87,117.19L1021.05,117.19L1021.17,95.96L1022.59,95.96L1022.71,117.19L1023.9,117.19L1024.01,95.96L1025.44,95.96L1025.55,117.19L1026.74,117.19L1026.86,95.96L1028.28,95.96L1028.4,117.19L1029.58,117.19L1029.7,95.96L1031.12,95.96L1031.24,117.19L1032.42,117.19L1032.54,95.96L1033.96,95.96L1034.08,117.19L1035.26,117.19L1035.38,95.96L1036.8,95.96L1036.92,117.19L1038.11,117.19L1038.22,95.96L1039.64,95.96L1039.76,117.19L1040,117.19" style="vector-effect: none; fill: none; stroke: rgb(0, 0, 255); stroke-opacity: 1; stroke-width: 0.25px; opacity: 1;"/></g><g class="points"/><g class="text"/></g></g></g><g class="overplot"/><path class="xlines-above crisp" d="M0,0" style="fill: none;"/><path class="ylines-above crisp" d="M0,0" style="fill: none;"/><g class="overlines-above"/><g class="xaxislayer-above"><path class="xtick ticks crisp" d="M0,421v6" transform="translate(167.98000000000002,0)" style="stroke: rgb(0, 0, 0); stroke-opacity: 1; stroke-width: 1px;"/><path class="xtick ticks crisp" d="M0,421v6" transform="translate(335.65,0)" style="stroke: rgb(0, 0, 0); stroke-opacity: 1; stroke-width: 1px;"/><path class="xtick ticks crisp" d="M0,421v6" transform="translate(509,0)" style="stroke: rgb(0, 0, 0); stroke-opacity: 1; stroke-width: 1px;"/><path class="xtick ticks crisp" d="M0,421v6" transform="translate(682.35,0)" style="stroke: rgb(0, 0, 0); stroke-opacity: 1; stroke-width: 1px;"/><path class="xtick ticks crisp" d="M0,421v6" transform="translate(855.71,0)" style="stroke: rgb(0, 0, 0); stroke-opacity: 1; stroke-width: 1px;"/><path class="xtick ticks crisp" d="M0,421v6" transform="translate(1029.06,0)" style="stroke: rgb(0, 0, 0); stroke-opacity: 1; stroke-width: 1px;"/><g class="xtick"><text text-anchor="middle" x="0" y="433" transform="translate(247.55,0)" style="font-family: Arial; font-size: 12px; fill: rgb(42, 63, 95); fill-opacity: 1; white-space: pre; opacity: 1;">Mar 2021</text></g><g class="xtick"><text text-anchor="middle" x="0" y="433" style="font-family: Arial; font-size: 12px; fill: rgb(42, 63, 95); fill-opacity: 1; white-space: pre; opacity: 1;" transform="translate(420.9,0)">May 2021</text></g><g class="xtick"><text text-anchor="middle" x="0" y="433" style="font-family: Arial; font-size: 12px; fill: rgb(42, 63, 95); fill-opacity: 1; white-space: pre; opacity: 1;" transform="translate(594.26,0)">Jul 2021</text></g><g class="xtick"><text text-anchor="middle" x="0" y="433" style="font-family: Arial; font-size: 12px; fill: rgb(42, 63, 95); fill-opacity: 1; white-space: pre; opacity: 1;" transform="translate(770.45,0)">Sep 2021</text></g><g class="xtick"><text text-anchor="middle" x="0" y="433" style="font-family: Arial; font-size: 12px; fill: rgb(42, 63, 95); fill-opacity: 1; white-space: pre; opacity: 1;" transform="translate(943.81,0)">Nov 2021</text></g><g class="xtick"><text text-anchor="middle" x="0" y="433" style="font-family: Arial; font-size: 12px; fill: rgb(42, 63, 95); fill-opacity: 1; white-space: pre; opacity: 1;" transform="translate(1117.16,0)">Jan 2022</text></g></g><g class="yaxislayer-above"><path class="ytick ticks crisp" d="M80,0h3" transform="translate(0,415.32)" style="stroke: rgb(68, 68, 68); stroke-opacity: 1; stroke-width: 1px;"/><path class="ytick ticks crisp" d="M80,0h3" transform="translate(0,387.02)" style="stroke: rgb(68, 68, 68); stroke-opacity: 1; stroke-width: 1px;"/><path class="ytick ticks crisp" d="M80,0h3" transform="translate(0,372.86)" style="stroke: rgb(68, 68, 68); stroke-opacity: 1; stroke-width: 1px;"/><path class="ytick ticks crisp" d="M80,0h3" transform="translate(0,358.71)" style="stroke: rgb(68, 68, 68); stroke-opacity: 1; stroke-width: 1px;"/><path class="ytick ticks crisp" d="M80,0h3" transform="translate(0,344.56)" style="stroke: rgb(68, 68, 68); stroke-opacity: 1; stroke-width: 1px;"/><path class="ytick ticks crisp" d="M80,0h3" transform="translate(0,316.26)" style="stroke: rgb(68, 68, 68); stroke-opacity: 1; stroke-width: 1px;"/><path class="ytick ticks crisp" d="M80,0h3" transform="translate(0,302.1)" style="stroke: rgb(68, 68, 68); stroke-opacity: 1; stroke-width: 1px;"/><path class="ytick ticks crisp" d="M80,0h3" transform="translate(0,287.95)" style="stroke: rgb(68, 68, 68); stroke-opacity: 1; stroke-width: 1px;"/><path class="ytick ticks crisp" d="M80,0h3" transform="translate(0,273.8)" style="stroke: rgb(68, 68, 68); stroke-opacity: 1; stroke-width: 1px;"/><path class="ytick ticks crisp" d="M80,0h3" transform="translate(0,245.49)" style="stroke: rgb(68, 68, 68); stroke-opacity: 1; stroke-width: 1px;"/><path class="ytick ticks crisp" d="M80,0h3" transform="translate(0,231.34)" style="stroke: rgb(68, 68, 68); stroke-opacity: 1; stroke-width: 1px;"/><path class="ytick ticks crisp" d="M80,0h3" transform="translate(0,217.19)" style="stroke: rgb(68, 68, 68); stroke-opacity: 1; stroke-width: 1px;"/><path class="ytick ticks crisp" d="M80,0h3" transform="translate(0,203.04000000000002)" style="stroke: rgb(68, 68, 68); stroke-opacity: 1; stroke-width: 1px;"/><path class="ytick ticks crisp" d="M80,0h3" transform="translate(0,174.73000000000002)" style="stroke: rgb(68, 68, 68); stroke-opacity: 1; stroke-width: 1px;"/><path class="ytick ticks crisp" d="M80,0h3" transform="translate(0,160.57999999999998)" style="stroke: rgb(68, 68, 68); stroke-opacity: 1; stroke-width: 1px;"/><path class="ytick ticks crisp" d="M80,0h3" transform="translate(0,146.43)" style="stroke: rgb(68, 68, 68); stroke-opacity: 1; stroke-width: 1px;"/><path class="ytick ticks crisp" d="M80,0h3" transform="translate(0,132.28)" style="stroke: rgb(68, 68, 68); stroke-opacity: 1; stroke-width: 1px;"/><path class="ytick ticks crisp" d="M80,0h3" transform="translate(0,103.97)" style="stroke: rgb(68, 68, 68); stroke-opacity: 1; stroke-width: 1px;"/><g class="ytick"><text text-anchor="end" x="79" y="4.199999999999999" transform="translate(0,401.17)" style="font-family: Arial; font-size: 12px; fill: rgb(42, 63, 95); fill-opacity: 1; white-space: pre; opacity: 1;">10</text></g><g class="ytick"><text text-anchor="end" x="79" y="4.199999999999999" style="font-family: Arial; font-size: 12px; fill: rgb(42, 63, 95); fill-opacity: 1; white-space: pre; opacity: 1;" transform="translate(0,330.40999999999997)">0</text></g><g class="ytick"><text text-anchor="end" x="79" y="4.199999999999999" style="font-family: Arial; font-size: 12px; fill: rgb(42, 63, 95); fill-opacity: 1; white-space: pre; opacity: 1;" transform="translate(0,259.65)">10</text></g><g class="ytick"><text text-anchor="end" x="79" y="4.199999999999999" style="font-family: Arial; font-size: 12px; fill: rgb(42, 63, 95); fill-opacity: 1; white-space: pre; opacity: 1;" transform="translate(0,188.88)">20</text></g><g class="ytick"><text text-anchor="end" x="79" y="4.199999999999999" style="font-family: Arial; font-size: 12px; fill: rgb(42, 63, 95); fill-opacity: 1; white-space: pre; opacity: 1;" transform="translate(0,118.12)">30</text></g></g><g class="overaxes-above"/></g></g><g class="polarlayer"/><g class="smithlayer"/><g class="ternarylayer"/><g class="geolayer"/><g class="funnelarealayer"/><g class="pielayer"/><g class="iciclelayer"/><g class="treemaplayer"/><g class="sunburstlayer"/><g class="glimages"/><defs id="topdefs-d1f61d"><g class="clips"/><clipPath id="legendd1f61d"><rect width="171" height="48" x="0" y="0"/></clipPath></defs><g class="layer-above"><g class="imagelayer"/><g class="shapelayer"/></g><g class="infolayer"><g class="legend" pointer-events="all" transform="translate(949,100)"><rect class="bg" shape-rendering="crispEdges" style="stroke: rgb(68, 68, 68); stroke-opacity: 1; fill: rgb(255, 255, 255); fill-opacity: 1; stroke-width: 0px;" width="171" height="48" x="0" y="0"/><g class="scrollbox" transform="" clip-path="url(#legendd1f61d)"><g class="groups"><g class="traces" transform="translate(0,14.5)" style="opacity: 1;"><text class="legendtext" text-anchor="start" x="40" y="4.680000000000001" style="font-family: Arial; font-size: 12px; fill: rgb(42, 63, 95); fill-opacity: 1; white-space: pre;">Buitentemperatuur [C]</text><g class="layers" style="opacity: 1;"><g class="legendfill"/><g class="legendlines"><path class="js-line" d="M5,0h30" style="fill: none; stroke: rgb(255, 0, 0); stroke-opacity: 1; stroke-width: 0.25px;"/></g><g class="legendsymbols"><g class="legendpoints"/></g></g><rect class="legendtoggle" x="0" y="-9.5" width="165.53125" height="19" style="fill: rgb(0, 0, 0); fill-opacity: 0;"/></g><g class="traces" transform="translate(0,33.5)" style="opacity: 1;"><text class="legendtext" text-anchor="start" x="40" y="4.680000000000001" style="font-family: Arial; font-size: 12px; fill: rgb(42, 63, 95); fill-opacity: 1; white-space: pre;">Binnentemperatuur [C]</text><g class="layers" style="opacity: 1;"><g class="legendfill"/><g class="legendlines"><path class="js-line" d="M5,0h30" style="fill: none; stroke: rgb(0, 0, 255); stroke-opacity: 1; stroke-width: 0.25px;"/></g><g class="legendsymbols"><g class="legendpoints"/></g></g><rect class="legendtoggle" x="0" y="-9.5" width="165.53125" height="19" style="fill: rgb(0, 0, 0); fill-opacity: 0;"/></g></g></g><rect class="scrollbar" rx="20" ry="3" width="0" height="0" style="fill: rgb(128, 139, 164); fill-opacity: 1;" x="0" y="0"/></g><g class="g-gtitle"><text class="gtitle" x="60" y="50" text-anchor="start" dy="0em" style="font-family: Arial; font-size: 20px; fill: rgb(42, 63, 95); opacity: 1; font-weight: normal; white-space: pre;">Plot temperatuur over periode</text></g><g class="g-xtitle"><text class="xtitle" x="600" y="460.3" text-anchor="middle" style="font-family: Arial; font-size: 14px; fill: rgb(42, 63, 95); opacity: 1; font-weight: normal; white-space: pre;">Tijdstempel</text></g><g class="g-ytitle"><text class="ytitle" transform="rotate(-90,34.340625,260)" x="34.340625" y="260" text-anchor="middle" style="font-family: Arial; font-size: 14px; fill: rgb(42, 63, 95); opacity: 1; font-weight: normal; white-space: pre;">Temperatuur (C)</text></g></g></svg>